<svg xmlns="http://www.w3.org/2000/svg" width="19" height="13" fill="none"><path fill="#BDC2CB" d="M3.88 12.72a1.2 1.2 0 0 1-.7.28.98.98 0 0 1-.7-.33l-.84-.8c-.25-.24-.38-.46-.38-.65 0-.22.16-.45.47-.7 1.34-1 2.01-2.12 2.01-3.37-.28-.34-.6-.51-.98-.51H.98c-.31 0-.54-.1-.7-.28C.1 6.2 0 5.97 0 5.66V1.03C0 .72.1.47.28.28.44.12.67.05.98.05h5.43c.65 0 .98.3.98.93.06 1.12.1 2.08.1 2.85 0 2.06-.23 3.76-.66 5.1a8.57 8.57 0 0 1-2.95 3.79Zm10.8-.05a1.2 1.2 0 0 1-.7.28.98.98 0 0 1-.7-.32l-.84-.8c-.25-.25-.38-.47-.38-.65 0-.22.16-.46.47-.7 1.34-1 2.01-2.13 2.01-3.37-.28-.35-.6-.52-.98-.52h-1.78c-.3 0-.54-.09-.7-.28-.18-.15-.28-.39-.28-.7V.98c0-.31.1-.56.28-.75.16-.15.4-.23.7-.23h5.43c.65 0 .98.31.98.94.06 1.12.1 2.07.1 2.85 0 2.06-.22 3.75-.66 5.1a8.57 8.57 0 0 1-2.95 3.78Z"/></svg>