<svg xmlns="http://www.w3.org/2000/svg" width="400" height="201" fill="none"><g clip-path="url(#a)"><path fill="#E4E4E4" fill-rule="evenodd" d="M216.12.82c-10.06.61-16.28 2.7-24.31 8.12-9.46 6.4-14.54 14.73-16.64 27.3-.58 3.52-.82 4-2.57 5.3-1.06.78-5.5 4.29-9.88 7.8a367.13 367.13 0 0 1-15.59 11.76c-9.1 6.4-14.14 10.85-22.3 19.75-13.1 14.27-22.44 22.72-36.42 32.92-9.7 7.08-15.9 12.28-18.97 15.93-3.1 3.69-5.79 8.34-5.79 10.01 0 2.58.97 2.86 11.05 3.16 12.75.38 13.19.63 14.57 8.55.85 4.9 1.99 6.84 4.42 7.54 1.56.45 2.58.2 7.19-1.74.28-.12-.43 1.08-1.56 2.65-12.9 17.95-22.09 27.28-31.4 31.91-3.9 1.94-4.99 2.24-8.7 2.41-3.68.17-8.25-.21-15.78-1.32-1.1-.16-1.98.22-1.98.22s13.85 2.4 18.21 2.12c4.65-.3 10.07-2.66 15.67-6.82 5.17-3.85 13.97-13.3 20.13-21.61l7.17-9.68c2.1-2.83 4.18-4.1 9.37-5.74 7.63-2.42 11.43-4.02 24.06-10.13 13.6-6.57 20-9.03 26.15-10.05 2.03-.34 5.95-1.21 8.71-1.94 4.76-1.26 5.88-1.34 21.2-1.49l16.2-.16-.56 1.48c-1.19 3.15 2.13 11.02 6.67 15.82 2.89 3.05 9.33 8.02 12.47 9.6a39.22 39.22 0 0 0 21.94 3.7c5.16-.62 14.44-3.45 18.22-5.57 1.28-.71 2.4-1.23 2.48-1.14.09.09-.33 3.01-.93 6.5-1.5 8.72-1.63 22.1-.27 28.07 1.17 5.13 4.34 11.95 6.9 14.84l1.87 2.12.02-1.72a54.9 54.9 0 0 0-.84-6.63c-1.4-8.1-.29-19.91 2.3-24.31.5-.84 1.04-1.52 1.22-1.52.18 0 .6 2.1.94 4.66.34 2.57 1.25 6.21 2.03 8.09.77 1.87 1.68 4.6 2.02 6.06l.62 2.65.36-5.4c.43-6.62 1.26-10.68 3.94-19.24 1.13-3.65 2.3-7.46 2.58-8.48l.53-1.86 1.2 3.71c1.6 4.98 1.65 11.07.1 15.07-.6 1.59-1.01 2.98-.9 3.09.46.46 4.05-4.98 5.1-7.74.92-2.39 1.16-4.24 1.21-9.1.08-7.4-1.07-27.57-1.74-30.38-.47-1.98-.45-2.03.82-1.7.71.17 5.75 2.73 11.18 5.69a576.72 576.72 0 0 0 18.99 9.79c10.32 5.02 13.36 7.35 13.36 10.24 0 1.87-1.94 4.06-8.58 9.68a16.64 16.64 0 0 0-6.06 11.39c-.24 2.58-.04 3.68 1.14 6.52a32.4 32.4 0 0 1 1.86 7.11c.66 5.43 1.28 5.81 8.74 5.39 3.2-.18 8.84-.33 12.55-.33 4.75 0 6.74-.19 6.74-.62 0-.46-3.2-.52-12.6-.26-14.58.41-14.02.6-14.52-4.69-.17-1.75-.9-4.61-1.64-6.36-2.12-5.01-1.65-9.75 1.39-14.24.68-1 3.2-3.41 5.62-5.37 6.3-5.1 7.6-7.73 5.45-11-1.54-2.35-4.07-3.99-12.18-7.9a678.98 678.98 0 0 1-19.56-10.04l-12.63-6.74c-.37-.2-1.5-2.27-2.51-4.6-2.33-5.39-4.33-8.26-10.32-14.84a108.85 108.85 0 0 1-6.39-7.55c-1.77-2.57-5.88-11.6-8.67-19.09l-1.9-5.06 1.6-4.82c1.56-4.76 3.24-14.14 3.24-18.15 0-2.92-1.99-6.62-4.07-7.6-1.46-.68-1.74-1.14-1.98-3.18-1.35-11.5-4.43-18.47-11.11-25.2-5.14-5.18-15-11.9-20.72-14.12C230.28.45 226.72.17 216.12.8Zm15.35 1.35c4.5 1.18 11.04 4.83 17.9 10 9.96 7.5 14.79 15.45 16.17 26.61l.55 4.45-2.08 1.98c-2.62 2.5-3.07 5.03-2.24 12.5.41 3.7.43 5.96.07 7.23-1.7 5.88 1.69 8.03 3.99 2.54.76-1.83 1-4.2 1.18-12.2.24-10.54.42-11.14 2.6-8.75 2.43 2.69 2.8 5.4 1.7 12.75-1.36 9.08-2.98 13.42-5.88 15.75-1.1.9-2.01 1.97-2.01 2.4 0 .42-.24.77-.53.77-.3 0-.53-.9-.54-1.99 0-1.15-.89-3.97-2.11-6.73-1.16-2.61-2.1-5.42-2.1-6.25 0-2.18-1.42-4.64-2.66-4.64-1.44 0-1.35 1.66.23 4.4.85 1.47 1.4 3.48 1.63 5.93l.35 3.71-4.33-8.63c-6.16-12.29-11.02-17.18-19.64-19.75-3.8-1.14-3.88-1.28-1.84-3.55 1.25-1.4 2.67-1.5 5.3-.4 2.56 1.08 7.04 1.01 9.33-.13 2.48-1.24 3.7-3.82 3.7-7.84 0-9.71-6.44-20.53-15.38-25.83-3.97-2.35-5.94-2.45-6.19-.32-.12 1.04.49 2.1 2.43 4.24 3.24 3.56 3.58 4.23 4.31 8.28.65 3.58.28 8.07-.77 9.52-.58.79-.8.81-1.56.17-1.41-1.17-2.77-4.26-4-9.07-1.48-5.84-3.93-11.69-5.52-13.2-1.65-1.54-3.68-1.52-5.38.07-1.72 1.6-2.04 2.44-4.12 10.8-1.8 7.24-3.53 11.39-4.73 11.39-2.6 0-2.42-5.05.45-13.4 1.25-3.64 1.88-6.36 1.78-7.65-.15-1.85-.3-2.02-1.96-2.18-2.76-.26-12.18 4.7-15.96 8.4-4.7 4.61-12.08 16.88-13.44 22.35-.23.95-1.06 1.8-2.45 2.53l-2.1 1.1L176 37c.6-4.1 2.76-11.08 4.53-14.59 2.02-4.01 6.73-9.02 11.75-12.49 8.14-5.62 13.55-7.49 23.32-8.02 11.18-.61 12.57-.59 15.88.27Zm-20.89 6.47a70.64 70.64 0 0 1-2.04 6.82c-2.15 6.22-2.68 10.78-1.47 12.63 1.55 2.36 3.37 1.59 5.31-2.25.49-.96 1.67-4.9 2.63-8.75 1.97-7.94 2.98-10.23 4.84-11.08 1.14-.52 1.5-.4 2.86.89 1.8 1.73 3.72 6.26 5.32 12.54 1.22 4.8 3.35 9.25 4.8 10.03 2.4 1.3 3.64-1.14 3.64-7.2 0-5.64-1.19-8.95-4.46-12.46-4.51-4.83-2.56-5.68 3.6-1.55 4.56 3.07 7.02 5.72 9.68 10.49 2.88 5.13 3.97 9.17 3.76 13.96-.21 5.03-1.27 6.46-5.44 7.33-2.41.5-3.15.43-5.79-.56-1.66-.63-3.72-1.04-4.57-.91-1.04.15-1.54 0-1.54-.48 0-.38-.5-1.2-1.1-1.81-1.05-1.04-1.58-1.1-8.45-.93-6.81.16-7.38.1-8.1-.88-.73-1-1.31-1.05-9.93-.92-6.15.1-10.04.4-11.87.93-3.4.98-10.88 2.43-11.15 2.16-.34-.34 2.86-7.51 4.92-11.05 2.73-4.7 6.14-9.35 8.5-11.62 3.84-3.67 14.48-8.93 15.83-7.8.38.3.46 1.21.22 2.47Zm-15.9 27.34c-1.58.97-5.6 3.48-8.94 5.56-3.34 2.09-6.26 3.8-6.5 3.8-.25 0-.34-.42-.2-.93.14-.5.54-2.18.89-3.7.34-1.54.66-2.8.7-2.8.65 0 11.34-2.3 13.3-2.87 3.85-1.11 3.93-1.02.75.94Zm18.25-1.05c.9.66.82.75-1.08 1.1-3.39.63-16.38 7.6-19.08 10.22-1.31 1.29-2.27 2.46-2.12 2.6.45.46 4.22-1.7 6.99-4.01a16.13 16.13 0 0 1 5.53-3c6.15-1.73 8.02-2.47 9.63-3.84 1.64-1.38 1.8-1.4 9.3-1.4 6.6 0 7.72.12 8.2.9.43.66.35 1.36-.3 2.72-1.08 2.28-4.86 4.23-10.44 5.38-7.51 1.55-11.49 3.24-21.08 8.94a102.53 102.53 0 0 1-5.55 3.16c-.33.12-.43.4-.22.61.2.22 3.77-1.29 7.93-3.35 8.3-4.14 15.9-6.6 19.52-6.34 2.04.14 2.32.32 2.46 1.55.22 1.9-2.08 3.75-8.16 6.59-2.66 1.23-8.84 4.96-13.74 8.28-11.23 7.61-16.37 10.7-17.09 10.25-1.97-1.22-4.76-14.78-4.77-23.2v-5.7l1.45-.03c2.23-.07 19.32-9 19.94-10.41.66-1.5 1.1-1.6 6.92-1.68 3.28-.04 5.1.17 5.77.66Zm-13.46.83c0 .27-3.33 2.13-7.4 4.15-4.07 2.02-7.4 3.6-7.4 3.5 0-.08 1.13-.8 2.52-1.59a69.1 69.1 0 0 0 4.95-3.2c3.68-2.65 7.33-4.07 7.33-2.86Zm12.97 1.6c-.35.57-5.82 2.7-6.78 2.64-.81-.05 5.47-3.14 6.4-3.14.38 0 .55.22.38.5Zm-33.92 4.93c-.98 4.67-.91 15.44.11 19.45.96 3.74.77 6.24-.22 2.94-1.3-4.35-2.72-14.31-2.72-19.11 0-4.87.03-4.98 1.45-5.76.8-.43 1.6-.8 1.76-.81.17-.01 0 1.47-.38 3.3Zm-3.88 2.92c.02 7.8 1.58 17.54 3.46 21.6.71 1.53 3.4 9.53 3.4 10.11 0 .71-9.27 4.54-13.95 5.76-2.86.74-6.13 1.87-7.26 2.51-1.53.87-9.1 9.9-29.07 34.74-14.85 18.46-27.75 34.14-28.67 34.84-2.27 1.75-6.1 3.43-7.8 3.44-2.2.02-4-2.53-4.4-6.2-.51-4.91-1.78-7.55-4.24-8.84-1.86-.98-3.11-1.12-10.48-1.2-10.08-.1-10.92-.26-10.92-2.06 0-2.83 4.19-8.76 9.9-14 3.45-3.18 5.88-5.07 19.35-15.07 9.03-6.7 17.7-14.55 26.9-24.34 11.72-12.49 16.63-17.19 21.6-20.72a542.7 542.7 0 0 0 24.78-18.77c3.63-2.95 6.78-5.36 7-5.37.22 0 .4 1.6.4 3.57Zm58.92.06c4.45 1.33 7.98 3.65 11.92 7.82 2.23 2.37 3.84 4.95 6.72 10.8 4.32 8.79 5.15 11.85 4.69 17.34-.18 2.12-.12 3.86.14 3.86.8 0 1.24-2.69 1.57-9.54l.33-6.63.91 2.25c1.03 2.5 2.86 11.8 3.68 18.7.68 5.68-.08 9.02-3.85 16.93-5.64 11.84-12.98 20.94-19.77 24.48-3.64 1.9-8.87 3.36-10.34 2.9-.42-.14-1.45-.4-2.3-.59-2.25-.5-9.67-7.87-11.2-11.14-1.6-3.4-1.57-6.1.12-10.07.75-1.75 1.67-4 2.05-5 .57-1.55 1.12-1.99 3.51-2.79 5.35-1.8 6.84-3.14 5.74-5.2-.43-.8-1.1-1.05-2.88-1.05-2.8 0-5.2 1.76-6.09 4.46-.64 1.95-2.43 2.69-4.56 1.87-1.55-.58-1.68-1.13-2.3-9.48-.46-6.04-.77-7.6-2.05-10.33-1.97-4.21-3.8-6.32-6.72-7.74-2.16-1.04-2.96-1.13-8.31-.87-3.26.16-6.7.46-7.65.65-1.1.23-1.72.15-1.72-.22 0-.32.78-.97 1.72-1.45.95-.47 6.83-4.27 13.08-8.43 6.25-4.15 13.66-8.65 16.47-10 5.25-2.5 7.31-4.33 7.31-6.46 0-2.84-3-3.58-8.47-2.1-5.09 1.38-5.7 1.47-3.77.58.97-.45 4.33-1.4 7.47-2.1 3.14-.72 6.63-1.77 7.75-2.35 1.13-.58 2.28-.86 2.57-.63.3.24 2.2.92 4.23 1.53Zm32.66 5.24c.55 9.2-1.07 19.11-3.07 18.75-.5-.09-.54-.9-.3-6.7.05-1.45-.06-4.8-.27-7.44-.32-4.2-.22-5.1.74-7.29 1.77-4.02 2.53-3.31 2.9 2.68Zm-9.64 10.54c.76 2 .2 2.17-.8.24-.5-.96-.62-1.64-.29-1.64.3 0 .8.63 1.09 1.4Zm10.63 17.07c-.3 5.2 4.42 23.44 9.28 35.85 3.8 9.7 4.07 12.3 1.8 16.83a32 32 0 0 1-3.43 5.36l-1.77 2.05-.31-7.88c-.33-8.28-1.3-13.35-3.75-19.87-1.6-4.22-5.08-24.37-5.08-29.34 0-3.1.16-3.65 1.4-4.8a6.65 6.65 0 0 1 1.71-1.3c.18 0 .24 1.4.15 3.1Zm-65.26-.37c2.16.65 5.22 4.06 6.85 7.63 1.01 2.22 1.42 4.46 1.96 10.81.4 4.6.96 8.28 1.32 8.64.35.35 1.8.76 3.24.91l2.6.28-1.9 4.2c-2.25 4.97-2.66 7.71-1.6 10.76.76 2.21.76 2.23-.35 1.63-3-1.6-18.01-18.42-20.98-23.5-.75-1.29-1.78-4.31-2.3-6.72-1.09-5.1-1.35-5.67-3.96-8.57-3.87-4.3-5.03-7.7-2.1-6.12.86.46 1.9.46 4.11.02 5.26-1.04 9.61-1.04 13.1.03Zm-19.91 1.64c0 .66.23 4.42.52 8.36.75 10.4 2.59 15.52 7.83 21.72 4.73 5.59 4.68 4.22-.18-5.57-3.58-7.2-4.68-10.68-5.43-17.1l-.44-3.86 1.8 1.74c2.35 2.27 2.62 2.81 3.58 7.39a25.33 25.33 0 0 0 6 12.36 401.1 401.1 0 0 1 5.68 6.9c4.28 5.3 6.32 7.41 10.4 10.7 1.98 1.6 3.49 3.02 3.35 3.16-.81.82-8.96 1.35-22.83 1.49-14.96.15-16.15.23-20.87 1.48-2.75.73-6.8 1.62-8.97 1.98-6.5 1.07-12.76 3.45-26.42 10.05-12.09 5.84-16.05 7.5-25.74 10.76-3.76 1.27-3.8 1.27-2.9.15.48-.62 10.76-13.38 22.82-28.36l25.37-31.5c3.99-4.97 5.82-6.1 12.42-7.7a54.44 54.44 0 0 0 8.98-3.2 56.13 56.13 0 0 1 4.63-2.1c.21-.02.4.5.4 1.15Zm89.28 7.02c4.2 10.29 5.97 13.37 10.74 18.75 7.87 8.84 9.42 10.89 11.52 15.21 1.14 2.35 2.08 4.56 2.08 4.9 0 .4-.95.63-2.52.64-3.13.01-6.5 1.51-7.9 3.5-.58.84-1.47 2.78-1.97 4.31-1.25 3.82-4.45 8.47-8.3 12.04-1.77 1.64-3.27 2.91-3.33 2.82-.07-.09.13-2.02.43-4.3.52-3.92.7-4.31 3.34-7.37 3.44-3.99 4.9-6.94 5.26-10.6.3-3.1-.21-4.97-4.3-15.45-3.1-7.95-9.73-33.6-8.22-31.77.2.24 1.62 3.53 3.17 7.32ZM188.6 102.8c1.61 3.18 2.84 5.88 2.71 6-.12.13-1.07-.92-2.1-2.33-2.56-3.51-5-10.45-5.34-15.18l-.28-3.82 1.03 4.77a42.36 42.36 0 0 0 3.98 10.56Zm77.23-1a71.1 71.1 0 0 0 2.61 10.05c2.3 6.38 3.42 13.39 3.42 21.27v6.5l-3.3 2.72c-4.31 3.53-11.74 7.12-16.89 8.17-11.33 2.3-21.15-.25-29-7.54-4.24-3.93-5.81-6.38-7.36-11.42-.61-1.97-1.45-3.72-1.87-3.88-1.4-.54-.8-1.13 1.35-1.34 1.97-.18 2.3 0 4.89 2.66 4.42 4.57 6.87 5.92 10.72 5.92 10.97 0 21.41-9.6 30.1-27.65 1.58-3.28 3.16-7.1 3.51-8.5.36-1.39.71-2.46.79-2.39.07.08.53 2.52 1.03 5.42Zm-39.1-1.79c.22.35-.12 1.03-.77 1.55-1.28 1.04-6.33 2.87-6.75 2.44-.43-.42 1.3-3.44 2.32-4.03 1.26-.74 4.74-.71 5.2.04Zm69.63 27.73c.95 2.49 2.2 21 2.17 32.08-.01 4.43-.27 6.85-.96 8.87-.52 1.52-1.1 2.87-1.3 3-.2.12-.28-1.8-.19-4.28.19-4.81-.97-9.9-3.24-14.21l-1.12-2.13-.35 3.73c-.2 2.06-1.32 6.7-2.5 10.34-1.94 6.01-3.49 12.55-3.94 16.67-.17 1.55-.2 1.52-1.36-1.04-.66-1.44-1.54-5.13-1.97-8.18-.43-3.06-.9-5.68-1.05-5.83-.15-.15-.86.43-1.56 1.3-2.22 2.7-3.47 6.94-4.08 13.82-.48 5.41-.43 7.34.3 12.14.5 3.14.8 5.8.69 5.91-.48.48-3.84-5.64-5.17-9.42-2.93-8.3-3.27-19.71-.98-33.34 1.05-6.27 1.2-6.7 2.8-7.92 2.87-2.2 7.7-7.4 9.1-9.82a48.96 48.96 0 0 0 2.64-5.61c1.5-3.81 2.52-5.13 4.75-6.12 2.24-.99 6.94-.97 7.32.04Zm-83.36.9c.33.25.9 1.59 1.28 2.96 2.28 8.45 10.1 16.13 19.56 19.24 4.99 1.64 14.1 1.8 19.53.34 4.89-1.32 11.4-4.57 14.94-7.45 3.37-2.75 3.38-2.74 2.45 2.64-.55 3.14-.72 3.41-2.82 4.65-6.71 3.94-15.96 6.38-24.08 6.35-8.68-.04-14.92-2.07-21.62-7.06-7.68-5.7-12.7-12.54-13.59-18.5-.3-2.06-.2-2.52.8-3.33 1.11-.9 2.25-.85 3.55.16Z" clip-rule="evenodd"/></g><defs><clipPath id="a"><path fill="#fff" d="M0 .5h400v200H0z"/></clipPath></defs></svg>