<svg width="800" height="800" viewBox="0 0 32 32" xmlns="http://www.w3.org/2000/svg"><g fill="none" fill-rule="evenodd"><path d="M0 0h32v32H0z"/><g fill="#fff" fill-rule="nonzero"><path d="M32 16c0-8.836-7.164-16-16-16S0 7.164 0 16s7.164 16 16 16 16-7.164 16-16zM1.455 16C1.455 7.967 7.967 1.455 16 1.455c8.033 0 14.545 6.512 14.545 14.545 0 8.033-6.512 14.545-14.545 14.545-8.033 0-14.545-6.512-14.545-14.545z"/><path d="M16.614 25.235V16h3.047l.482-3.06h-3.53v-1.535c0-.798.263-1.56 1.409-1.56h2.29V6.79H17.06c-2.734 0-3.48 1.8-3.48 4.297v1.851h-1.877V16h1.877v9.235z"/></g></g></svg>