<svg xmlns="http://www.w3.org/2000/svg" width="189" height="37" fill="none"><path fill="#223859" d="m40.25 18.68 1.13-1.3a8.33 8.33 0 0 0 5.73 2.23c2.26 0 3.7-1.16 3.7-2.77 0-1.46-.8-2.3-4.26-3-3.8-.76-5.57-2-5.57-4.6 0-2.47 2.34-4.31 5.48-4.31a9.15 9.15 0 0 1 5.81 1.92l-1.13 1.38a7.22 7.22 0 0 0-4.76-1.69c-2.17 0-3.54 1.16-3.54 2.62 0 1.46.88 2.3 4.51 3.07s5.4 2.07 5.4 4.53c0 2.7-2.33 4.46-5.64 4.46-2.54.03-5-.88-6.86-2.54ZM62.52 5.24h6.2c3.72 0 6.22 1.92 6.22 5.07 0 3.38-2.99 5.15-6.53 5.15h-4.04v5.6h-1.85V5.25Zm5.97 8.6c2.74 0 4.51-1.38 4.51-3.53s-1.77-3.46-4.43-3.46h-4.2v6.92h4.12v.08ZM83.32 5.24h7.1a6.64 6.64 0 0 1 4.67 1.61A4.32 4.32 0 0 1 96.4 10c0 2.62-1.94 4.15-4.52 4.61l5.08 6.46H94.6l-4.84-6.15h-4.76v6.15h-1.85V5.24h.16Zm7.01 7.99c2.5 0 4.28-1.23 4.28-3.3 0-1.92-1.53-3.15-4.28-3.15h-5.08v6.37h5.08v.08ZM111.62 5.08h1.77L120.98 21h-2.02l-1.94-4.15H108L106.06 21h-1.94l7.5-15.9Zm4.68 10.15-3.8-8.07-3.78 8.07h7.58ZM125.5 5.24h2.1l5.88 13.6 5.89-13.6h2.01l-7.1 15.9h-1.69l-7.1-15.9ZM149.69 5.24h1.77l10.4 12.6V5.24h1.86v15.75h-1.45L151.54 8.1v12.9h-1.85V5.24ZM171.7 13.08a7.8 7.8 0 0 1 1.47-4.47A8.4 8.4 0 0 1 177 5.68a8.86 8.86 0 0 1 4.89-.43 8.6 8.6 0 0 1 4.31 2.22 7.95 7.95 0 0 1 2.3 4.14 7.72 7.72 0 0 1-.5 4.65 8.17 8.17 0 0 1-3.12 3.6 8.77 8.77 0 0 1-4.7 1.36 8.05 8.05 0 0 1-8.46-8.14Zm15 0a6.42 6.42 0 0 0-6.52-6.54 6.41 6.41 0 0 0-6.54 6.54 6.41 6.41 0 0 0 6.54 6.53 6.37 6.37 0 0 0 6.53-6.53Z"/><path fill="#C4C4C4" d="M18.94 18.69c0 1.04.43 2.03 1.2 2.77a4.25 4.25 0 0 0 2.93 1.14c1.1 0 2.15-.4 2.93-1.14a3.81 3.81 0 0 0 1.2-2.77c0-1.04-.43-2.04-1.2-2.77a4.25 4.25 0 0 0-2.93-1.15c-1.1 0-2.15.42-2.92 1.15a3.81 3.81 0 0 0-1.21 2.77Zm-9.07-7.01c-.01.57.11 1.13.37 1.64.25.52.63.97 1.1 1.33a3.39 3.39 0 0 1 1.4 2.72v2.58c-.01.52-.14 1.04-.38 1.5-.24.48-.6.89-1.02 1.22A3.88 3.88 0 0 0 10 24.68a3.7 3.7 0 0 0 .15 2.37c.3.76.86 1.4 1.57 1.86a4.34 4.34 0 0 0 5.25-.52 3.9 3.9 0 0 0 1.23-2.7c.03-.58-.09-1.17-.34-1.7a3.82 3.82 0 0 0-1.12-1.39 3.5 3.5 0 0 1-1-1.21 3.32 3.32 0 0 1-.34-1.5v-2.6a3.53 3.53 0 0 1 1.34-2.7c.64-.52 1.1-1.21 1.33-1.99.22-.77.18-1.59-.1-2.34-.28-.75-.8-1.4-1.48-1.88a4.32 4.32 0 0 0-2.35-.74H14c-1.1.05-2.14.5-2.9 1.25a4.02 4.02 0 0 0-1.23 2.79ZM0 4.54C0 5.11.12 5.67.37 6.2c.25.51.63.96 1.1 1.32a3.38 3.38 0 0 1 1.4 2.72v2.71c0 .52-.14 1.04-.38 1.5-.24.48-.6.89-1.02 1.22a3.74 3.74 0 0 0-1.1 4.61c.25.52.63.97 1.1 1.32.43.33.78.74 1.02 1.21s.37.99.38 1.5v2.6c0 .52-.14 1.04-.38 1.5-.24.47-.6.89-1.02 1.21a3.88 3.88 0 0 0-1.34 2.02A3.7 3.7 0 0 0 .28 34c.3.76.86 1.4 1.57 1.85a4.34 4.34 0 0 0 5.25-.52 3.9 3.9 0 0 0 1.24-2.68c.02-.6-.1-1.18-.35-1.72a3.82 3.82 0 0 0-1.12-1.38 3.5 3.5 0 0 1-1-1.21 3.32 3.32 0 0 1-.33-1.5v-2.6c0-.52.13-1.03.37-1.5.25-.47.6-.88 1.03-1.21.45-.36.82-.82 1.07-1.33a3.74 3.74 0 0 0 .02-3.28 3.76 3.76 0 0 0-1.1-1.33 3.58 3.58 0 0 1-1.02-1.2 3.38 3.38 0 0 1-.37-1.51v-2.72a3.53 3.53 0 0 1 1.33-2.71c.64-.52 1.1-1.21 1.33-1.98.22-.78.18-1.6-.1-2.35s-.8-1.4-1.48-1.87A4.32 4.32 0 0 0 4.27.5h-.14C3.03.53 1.98.98 1.2 1.73A3.94 3.94 0 0 0 0 4.54Z"/><path fill="url(#a)" d="M18.94 18.69c0 1.04.43 2.03 1.2 2.77a4.25 4.25 0 0 0 2.93 1.14c1.1 0 2.15-.4 2.93-1.14a3.81 3.81 0 0 0 1.2-2.77c0-1.04-.43-2.04-1.2-2.77a4.25 4.25 0 0 0-2.93-1.15c-1.1 0-2.15.42-2.92 1.15a3.81 3.81 0 0 0-1.21 2.77Zm-9.07-7.01c-.01.57.11 1.13.37 1.64.25.52.63.97 1.1 1.33a3.39 3.39 0 0 1 1.4 2.72v2.58c-.01.52-.14 1.04-.38 1.5-.24.48-.6.89-1.02 1.22A3.88 3.88 0 0 0 10 24.68a3.7 3.7 0 0 0 .15 2.37c.3.76.86 1.4 1.57 1.86a4.34 4.34 0 0 0 5.25-.52 3.9 3.9 0 0 0 1.23-2.7c.03-.58-.09-1.17-.34-1.7a3.82 3.82 0 0 0-1.12-1.39 3.5 3.5 0 0 1-1-1.21 3.32 3.32 0 0 1-.34-1.5v-2.6a3.53 3.53 0 0 1 1.34-2.7c.64-.52 1.1-1.21 1.33-1.99.22-.77.18-1.59-.1-2.34-.28-.75-.8-1.4-1.48-1.88a4.32 4.32 0 0 0-2.35-.74H14c-1.1.05-2.14.5-2.9 1.25a4.02 4.02 0 0 0-1.23 2.79ZM0 4.54C0 5.11.12 5.67.37 6.2c.25.51.63.96 1.1 1.32a3.38 3.38 0 0 1 1.4 2.72v2.71c0 .52-.14 1.04-.38 1.5-.24.48-.6.89-1.02 1.22a3.74 3.74 0 0 0-1.1 4.61c.25.52.63.97 1.1 1.32.43.33.78.74 1.02 1.21s.37.99.38 1.5v2.6c0 .52-.14 1.04-.38 1.5-.24.47-.6.89-1.02 1.21a3.88 3.88 0 0 0-1.34 2.02A3.7 3.7 0 0 0 .28 34c.3.76.86 1.4 1.57 1.85a4.34 4.34 0 0 0 5.25-.52 3.9 3.9 0 0 0 1.24-2.68c.02-.6-.1-1.18-.35-1.72a3.82 3.82 0 0 0-1.12-1.38 3.5 3.5 0 0 1-1-1.21 3.32 3.32 0 0 1-.33-1.5v-2.6c0-.52.13-1.03.37-1.5.25-.47.6-.88 1.03-1.21.45-.36.82-.82 1.07-1.33a3.74 3.74 0 0 0 .02-3.28 3.76 3.76 0 0 0-1.1-1.33 3.58 3.58 0 0 1-1.02-1.2 3.38 3.38 0 0 1-.37-1.51v-2.72a3.53 3.53 0 0 1 1.33-2.71c.64-.52 1.1-1.21 1.33-1.98.22-.78.18-1.6-.1-2.35s-.8-1.4-1.48-1.87A4.32 4.32 0 0 0 4.27.5h-.14C3.03.53 1.98.98 1.2 1.73A3.94 3.94 0 0 0 0 4.54Z"/><path fill="#223859" d="M44.58 34.82c-.08.08-.08.08-.17.08h-.53v-1.08h-3.5c-.08 0-.17 0-.17-.09a.29.29 0 0 1-.08-.16v-4h.7v3.75h2.27v-3.75h.7v3.75h.6v1.5h.18ZM51.58 33.57v.16l-.09.09h-2.53c-.09 0-.09 0-.18-.09-.08-.08-.08-.08-.08-.16v-3.75c0-.09 0-.17.08-.17.1 0 .1-.08.18-.08h2.53v.41h-2.1v1.34h1.84v.33H49.4v1.5h2.18v.42ZM59.71 33.73a.28.28 0 0 1-.17.09H59v-2h-2.36v2h-.7v-4.25h.7v1.75h2.36v-1.75h.7v4.16ZM67.58 29.82v.16h-1.49v3.75h-.7v-3.75h-1.48v-.41h3.76v.16c-.18 0-.09 0-.09.09ZM74.75 30.82c.02.2-.01.4-.09.58a.84.84 0 0 1-.35.42c-.18.13-.39.22-.61.25-.26.07-.52.1-.79.08h-.6v1.58h-.7v-4c0-.08 0-.16.08-.16.09 0 .09-.08.17-.08h1.4c.13-.02.25.01.35.08.18 0 .26.08.44.17.13.06.25.14.35.25.09.08.17.25.26.33.09.08.09.33.09.5Zm-.79 0a.6.6 0 0 0-.09-.42l-.26-.25a.54.54 0 0 0-.35-.08h-.96v1.66h.61c.18.02.36-.01.53-.08.17-.08.26-.08.35-.17.08-.08.17-.16.17-.25v-.41ZM87.77 33.73a.28.28 0 0 1-.17.09h-.52v-3.75h-1.4c-.1.44-.16.88-.18 1.33a8.3 8.3 0 0 1-.52 1.67.84.84 0 0 1-.35.41c-.14.1-.28.19-.44.25-.16.07-.34.1-.52.09h-.1l-.08-.09v-.5h.09a.34.34 0 0 0 .26-.08c.09 0 .18-.08.26-.17.11-.12.2-.26.27-.41.12-.2.18-.44.17-.67.1-.3.17-.6.17-.92.1-.33.1-.83.18-1.33 0-.08 0-.17.09-.17.04-.04.1-.07.17-.08h2.27c.1 0 .18 0 .18.08.05.05.08.1.09.17v4.08h.08ZM93.11 33.73a.28.28 0 0 1-.17.09h-.53v-4.25h.7v4.16ZM101.15 33.73c-.09.09-.09.09-.17.09h-.53v-.09l-.44-1c-.08-.16-.17-.25-.17-.33l-.26-.25c-.09-.08-.18-.08-.35-.17a3.92 3.92 0 0 0-.44-.08h-.26v1.92h-.7v-4.25h.7v1.83h.26c.15.01.3-.01.44-.08a.68.68 0 0 0 .35-.17l.26-.25c.1-.09.15-.2.17-.33l.35-.92v-.08l.1-.08h.6v.25l-.43.91c-.09.17-.09.25-.18.33-.09.09-.09.17-.17.25-.09.09-.18.17-.27.17a.34.34 0 0 1-.26.08c.13.03.26.08.35.17.09.08.18.08.27.17l.26.25c.09.09.15.2.17.33l.44 1a.6.6 0 0 0-.09.33ZM107.45 32.65c-.08.21-.2.41-.35.58a.67.67 0 0 1-.35.34.68.68 0 0 1-.35.16l-.44.09h-.52a.1.1 0 0 1-.07-.03.08.08 0 0 1-.02-.06v-.41l.09-.09h.08c.03 0 .05.01.06.03.02.01.03.04.03.06.07 0 .13.03.17.08h.35c.1 0 .1 0 .18-.08l.17-.17c.1-.08.1-.17.18-.25l-1.84-3v-.16h.62l.08.08.88 1.58.26.5.26.5.26-.5c.1-.19.2-.38.27-.58l.7-1.5v-.08h.6v.16l-1.3 2.75ZM116.37 32.57c0 .16 0 .25-.09.33a.62.62 0 0 1-.17.33l-.26.25c-.1.09-.27.09-.35.17a.68.68 0 0 1-.44.08h-1.84c-.08 0-.08 0-.17-.08-.09-.08-.09-.08-.09-.17v-3.75c0-.08 0-.16.09-.16s.09-.09.17-.09h1.14c.27 0 .53.02.79.09.17.08.35.08.52.25.18.16.26.16.26.33.07.13.1.27.1.42v.25c0 .08-.1.16-.1.25 0 .08-.08.16-.17.16-.09 0-.18.09-.26.17.17 0 .26.08.35.08.08 0 .26.17.35.25a.43.43 0 0 1 .17.34v.5Zm-1.05-1.92a.3.3 0 0 0-.08-.25c0-.08-.1-.17-.18-.25-.09-.08-.17-.08-.26-.17a3.98 3.98 0 0 0-.44-.08h-.7v1.33h.79c.15.03.3 0 .44-.08.08 0 .17-.08.26-.17.08-.08.08-.16.17-.25v-.08Zm.35 1.92c0-.17 0-.25-.09-.34-.08-.08-.08-.16-.17-.25-.09-.08-.17-.08-.35-.16-.17-.09-.35-.09-.53-.09h-.78v1.5h.96c.15.02.3-.01.44-.08.08 0 .17-.08.26-.17.09-.08.17-.16.17-.25.1.09.1 0 .1-.16ZM124.42 33.57v.16h-.62v-.08l-.43-1h-2.1l-.44 1v.08h-.61v-.16l1.75-3.92v-.08h.78v.08l1.67 3.92Zm-2.2-3.42-.86 2.08h1.74l-.87-2.08ZM132.28 33.73a.27.27 0 0 1-.18.09h-.52v-2h-2.36v2h-.7v-4.25h.7v1.75h2.36v-1.75h.7v4.16ZM140.59 33.73a.28.28 0 0 1-.18.09h-.52v-2h-2.36v2h-.7v-4.25h.7v1.75h2.36v-1.75h.7v4.16ZM148.36 33.73a.27.27 0 0 1-.17.09h-.53v-1.84h-.52a.68.68 0 0 0-.44.09c-.09 0-.17.08-.26.16-.09.09-.18.17-.18.25 0 .09-.08.17-.17.34l-.44 1v.08h-.7v-.17c0-.06.04-.12.09-.16l.44-.92c.08-.08.08-.17.17-.33.09-.17.09-.17.18-.25.08-.09.17-.09.17-.17a.33.33 0 0 1 .26-.08c-.17 0-.26-.09-.43-.17a1.19 1.19 0 0 1-.35-.25.43.43 0 0 1-.18-.33.48.48 0 0 1-.09-.34c0-.17.02-.34.1-.5.08-.15.2-.3.34-.41l.53-.25c.31-.08.63-.1.96-.09h1.05c.08 0 .08 0 .17.09.09.08.09.08.09.16v4h-.09Zm-.7-3.75h-.61c-.2-.02-.42.01-.61.09a.47.47 0 0 0-.35.16c-.09.09-.18.17-.18.25 0 .09-.08.17-.08.25l.01.14a.3.3 0 0 0 .07.11c0 .09.1.17.18.25.09.09.17.09.35.17.17.08.35.08.61.08h.7v-1.5h-.09ZM161.57 32.57a1 1 0 0 1-.09.5c-.08.16-.17.25-.26.41a.62.62 0 0 1-.23.2c-.09.04-.2.06-.3.05-.3.08-.63.1-.95.09h-1.23c-.09 0-.09 0-.17-.09-.1-.08-.1-.08-.1-.16v-3.75c0-.09 0-.17.1-.17.08 0 .08-.08.17-.08h2.71l.09.08v.42h-2.27v1.33h.96c.26-.02.53 0 .78.08l.53.25c.17.09.26.25.35.34-.18.08-.09.25-.09.5Zm-.7 0a.47.47 0 0 0-.09-.34c-.08-.08-.08-.16-.17-.25-.09-.08-.18-.08-.35-.16-.17-.09-.35-.09-.52-.09h-.88v1.5h.88c.17.02.35-.01.52-.08a.47.47 0 0 0 .35-.17c.09-.08.17-.16.17-.25 0 .09.1-.08.1-.16ZM170.05 31.65c0 .31-.07.62-.18.92a1.75 1.75 0 0 1-1.13 1.08c-.34.11-.7.17-1.05.17-.33-.01-.65-.07-.96-.17-.27-.09-.5-.23-.7-.42-.2-.18-.35-.41-.44-.66a2.49 2.49 0 0 1 0-1.84 1.85 1.85 0 0 1 1.14-1.08 3.28 3.28 0 0 1 2.01 0c.26.09.5.23.7.42.2.19.34.41.43.66.15.29.21.6.18.92Zm-.7 0a1.6 1.6 0 0 0-.09-.67 2.74 2.74 0 0 0-.26-.5.87.87 0 0 0-.44-.33 1.55 1.55 0 0 0-1.4 0c-.17.09-.35.25-.52.34l-.26.5c-.12.43-.12.9 0 1.33.07.2.16.4.26.58.1.15.26.27.44.33.24.12.51.17.78.17.27-.01.54-.07.79-.17.17-.08.35-.25.53-.33.1-.19.19-.38.26-.58-.07-.22-.1-.44-.1-.67ZM177.83 33.73a.27.27 0 0 1-.18.09h-.52v-3.75h-1.4c-.1.44-.15.88-.17 1.33a8.26 8.26 0 0 1-.53 1.67.84.84 0 0 1-.35.41c-.13.1-.28.19-.44.25-.16.07-.34.1-.52.09h-.09l-.09-.09v-.5h.1a.34.34 0 0 0 .26-.08c.08 0 .17-.08.26-.17.1-.12.2-.26.26-.41.12-.2.18-.44.17-.67.11-.3.17-.6.18-.92.09-.33.09-.83.17-1.33 0-.08 0-.17.1-.17.04-.04.1-.07.17-.08h2.27c.09 0 .17 0 .17.08.05.05.08.1.1.17v4.08h.08ZM188.5 31.65c0 .31-.06.62-.17.92a1.75 1.75 0 0 1-1.14 1.08c-.62.22-1.3.22-1.92 0-.27-.09-.5-.23-.7-.42-.2-.18-.35-.41-.44-.66a2.4 2.4 0 0 1-.17-.84h-.97v2h-.7v-4.25h.7v1.84h.97c.01-.26.07-.51.17-.75.1-.23.25-.43.44-.59.22-.15.45-.3.7-.41.62-.22 1.3-.22 1.92 0a1.75 1.75 0 0 1 1.14 1.08c.14.32.2.66.17 1Zm-.7 0a1.6 1.6 0 0 0-.08-.67 2.8 2.8 0 0 0-.27-.5.87.87 0 0 0-.43-.33 1.54 1.54 0 0 0-1.84.33l-.26.5c-.08.22-.1.45-.09.67v.42c0 .16.09.25.09.41 0 .17.09.25.17.34l.26.25c.13.1.28.16.44.16.17.07.35.1.53.09.24 0 .48-.07.7-.17.16-.09.3-.2.43-.33l.27-.5c.07-.22.1-.44.08-.67Z"/><defs><linearGradient id="a" x1="20.18" x2="30.67" y1="-13.67" y2="-6.17" gradientUnits="userSpaceOnUse"><stop stop-color="#87CDB2"/><stop offset="1" stop-color="#00ACB7"/></linearGradient></defs></svg>