<svg xmlns="http://www.w3.org/2000/svg" width="18" height="18" fill="none"><path stroke="#fff" stroke-width="1.19" d="M1 10.63c0-2.76 0-4.14.94-5 .93-.86 2.44-.86 5.46-.86h3.2c3.02 0 4.53 0 5.46.86.94.86.94 2.24.94 5 0 2.77 0 4.15-.94 5.01-.93.86-2.44.86-5.46.86H7.4c-3.02 0-4.53 0-5.46-.86-.94-.86-.94-2.24-.94-5ZM12.33 4.43c0-1.38 0-2.07-.47-2.5-.47-.43-1.22-.43-2.73-.43s-2.27 0-2.73.43c-.47.43-.47 1.12-.47 2.5"/><path stroke="#fff" stroke-linecap="round" stroke-width="1.19" d="M11.29 10.39H6.9m2.19-2v4"/></svg>