<svg width="114" height="114" viewBox="0 0 114 114" fill="none" xmlns="http://www.w3.org/2000/svg">
<g clip-path="url(#clip0_2057_513)">
<path d="M95.3517 57.4844C104.742 72.1939 114.252 86.7279 133.377 86.9728C149.027 87.173 158.485 77.6238 166.757 66.222" stroke="white" stroke-width="2.0487" stroke-linecap="round" stroke-linejoin="round"/>
<path d="M101.053 49.2736C109.25 38.0619 118.667 28.753 134.121 28.9514C153.275 29.1963 162.785 43.7303 172.146 58.4398" stroke="white" stroke-width="2.0487" stroke-linecap="round" stroke-linejoin="round"/>
<path d="M104.133 46.7607L103.848 69.0032" stroke="white" stroke-width="1.02488" stroke-linecap="round" stroke-linejoin="round"/>
<path d="M114.415 35.2422L113.838 80.2454" stroke="white" stroke-width="1.02488" stroke-linecap="round" stroke-linejoin="round"/>
<path d="M18.5616 56.501C27.9518 71.2105 37.4617 85.7445 56.5866 85.9894C72.2366 86.1896 81.6953 76.6404 89.9668 65.2386" stroke="white" stroke-width="2.0487" stroke-linecap="round" stroke-linejoin="round"/>
<path d="M24.2609 48.2902C32.4584 37.0785 41.876 27.7696 57.3285 27.968C76.4827 28.2129 85.9926 42.7469 95.3535 57.4564" stroke="white" stroke-width="2.0487" stroke-linecap="round" stroke-linejoin="round"/>
<path d="M27.3408 45.7783L27.0557 68.0208" stroke="white" stroke-width="1.02488" stroke-linecap="round" stroke-linejoin="round"/>
<path d="M37.624 34.2598L37.0473 79.263" stroke="white" stroke-width="1.02488" stroke-linecap="round" stroke-linejoin="round"/>
<path d="M50.7666 29.6221L50.0638 84.5026" stroke="white" stroke-width="1.02488" stroke-linecap="round" stroke-linejoin="round"/>
<path d="M63.8467 29.79L63.1438 84.6696" stroke="white" stroke-width="1.02488" stroke-linecap="round" stroke-linejoin="round"/>
<path d="M76.8467 36.2197L76.301 78.8246" stroke="white" stroke-width="1.02488" stroke-linecap="round" stroke-linejoin="round"/>
<path d="M86.8369 47.6455L86.5764 67.9513" stroke="white" stroke-width="1.02488" stroke-linecap="round" stroke-linejoin="round"/>
<path d="M-58.2333 55.5176C-48.8431 70.2271 -39.3332 84.7602 -20.2083 85.0061C-4.55831 85.2062 4.90041 75.657 13.1719 64.2552" stroke="white" stroke-width="2.0487" stroke-linecap="round" stroke-linejoin="round"/>
<path d="M-52.532 47.3058C-44.3346 36.0941 -34.917 26.7852 -19.4644 26.9836C-0.310284 27.2285 9.19962 41.7625 18.5605 56.4721" stroke="white" stroke-width="2.0487" stroke-linecap="round" stroke-linejoin="round"/>
<path d="M0.0537109 35.2344L-0.491929 77.8402" stroke="white" stroke-width="1.02488" stroke-linecap="round" stroke-linejoin="round"/>
<path d="M10.0439 46.6611L9.78345 66.966" stroke="white" stroke-width="1.02488" stroke-linecap="round" stroke-linejoin="round"/>
</g>
<defs>
<clipPath id="clip0_2057_513">
<rect width="114" height="114" fill="white" transform="matrix(0 1 -1 0 114 0)"/>
</clipPath>
</defs>
</svg>
