<svg width="114" height="114" fill="none" xmlns="http://www.w3.org/2000/svg"><path fill-rule="evenodd" clip-rule="evenodd" d="M90.172 33.385c-.075-.087-1.845-6.319-2.849-8.352-3.805-7.714-9.792-14.011-16.511-17.367-6.129-3.061-10.14-3.906-18.482-3.89-9.164.014-15.011 1.395-23.244 5.484-4.882 2.426-6.595 3.65-10.087 7.215-6.826 6.967-9.524 13.505-9.506 23.038.017 8.643 2.174 16.213 6.518 22.873 1.184 1.817 5.563 6.888 9.73 11.27 4.91 5.162 8.024 8.935 8.85 10.721 1.395 3.022 2.15 8.11 1.888 12.728-.157 2.76-.336 3.094-2.52 4.693-4.396 3.219-6.335 8.007-3.415 8.431 1.58.229 4.447-3.134 5.35-6.275.385-1.335.963-2.626 1.286-2.87.323-.244 2.352-.271 4.508-.062 4.989.484 7.926.374 10.18-.381 2.438-.817 5.583-4.501 6.376-7.47C60.002 86.59 56 69.82 49.256 55.52l-2.117-4.49 1.895-2.521c1.042-1.386 1.895-2.733 1.895-2.992 0-.259 1.324.042 2.94.668 3.811 1.475 7.711 1.179 9.734-.74 2.58-2.447 3.169-4.284 2.872-8.97-.267-4.242-.256-4.287 1.579-6.043 1.168-1.12 2.086-2.732 2.496-4.386l.65-2.617 2.028.86c1.116.475 4.935 1.845 8.488 3.047l6.458 2.186.973 2.971c1.24 3.791 2.455 5.068 8.128 8.549 5.749 3.526 8.542 6.133 8.542 7.972 0 .761-1.105 2.925-2.455 4.809-5.437 7.587-5.55 9.273-1.186 17.536 3.584 6.784 3.88 8.925 1.61 11.665-1.593 1.922-4.004 3.329-8.874 5.179-5.99 2.276-8.134 5.284-9.876 13.857-1.019 5.012-1.347 8.191-.787 7.622.152-.154.656-2.489 1.12-5.188 1.077-6.28 2.682-10.611 4.627-12.495.847-.82 3.637-2.387 6.202-3.483 5.647-2.413 8.357-4.422 9.407-6.975 1.034-2.511.675-3.838-2.945-10.903-1.823-3.558-3.004-6.586-3.004-7.702 0-1.765 1.007-3.678 5.461-10.368 1-1.504 1.82-3.177 1.82-3.717 0-1.76-2.714-4.318-8.27-7.79-5.898-3.687-7.57-5.198-8.495-7.677ZM71.268 8.66c-1.906-1.02-5.412-2.36-7.79-2.978-7.645-1.985-19.224-1.368-27.888 1.487-9.772 3.22-18.65 10.54-22.354 18.433-3.807 8.112-4.117 17.226-.916 26.93 2.451 7.43 4.88 11.047 13.418 19.99 4.181 4.379 8.152 8.879 8.823 10 1.979 3.3 3.107 8.769 2.764 13.395l-.302 4.059 5.807.402c6.56.454 9.096-.083 11.669-2.474.885-.823 1.956-2.32 2.38-3.326 1.022-2.425.98-9.415-.086-14.661-1.518-7.462-5.2-17.908-9.02-25.595l-1.415-2.843h-3.47c-4.398 0-8.282-1.909-10.856-5.336-2.118-2.82-2.306-4.698-.64-6.39.958-.973 1.655-1.15 3.637-.923 3.235.37 5.598 2.281 8.913 7.208 2.625 3.9 2.733 3.987 3.802 3.022.605-.547 1.459-1.856 1.898-2.91.736-1.766.708-2.012-.35-3.155-1.72-1.86-2.05-4.404-.729-5.619 2.227-2.046 3.95.405 3.28 4.663-.331 2.103-.275 2.194 2.015 3.242 1.296.594 3.58 1.08 5.077 1.08 2.417 0 2.932-.234 4.596-2.078 2.127-2.357 2.873-5.64 2.11-9.284-.437-2.08-.66-2.298-2.797-2.728-2.526-.507-5.956-3.778-5.645-5.384.6-3.088 5.242-1.715 7.168 2.119 1.022 2.034 1.291 2.232 2.291 1.689 1.628-.885 3.31-3.945 3.312-6.027.002-1.743-.096-1.811-3.966-2.775-8.825-2.196-15.689.019-24.876 8.026-2.772 2.417-6.06 4.854-7.304 5.416-7.136 3.219-13.155 1.092-14.835-5.242-1.267-4.778 2.767-12.323 7.143-13.363.855-.203 2.562-1.348 3.794-2.544 1.233-1.197 3.753-2.886 5.601-3.753C38.79 8.903 41.783 8.576 48.69 9c.77.048 3.081-.058 5.136-.233 4.458-.38 7.396.703 11.088 4.09 2.42 2.22 5.604 7.21 5.614 8.797.003.622 2.208 1.67 7.426 3.526 8.754 3.115 9.941 3.468 9.941 2.962 0-.21-.939-2.211-2.086-4.447-2.665-5.19-9.659-12.421-14.54-15.034Zm-23.09 2.333c.373-.379.402-.748.076-.953-1.037-.65-6.594-.872-8.668-.345-2.985.758-7.189 3.031-8.75 4.731l-1.331 1.45 1.61.403c3.565.892 5.75 3.819 5.029 6.736-1.191 4.822-8.178 1.589-8.178-3.784 0-2.056-.102-2.205-1.26-1.848-5.765 1.778-9.064 10.27-5.864 15.094 1.688 2.542 3.4 3.346 7.124 3.34 4.17-.004 6.624-1.26 12.602-6.441 8.827-7.652 16.05-10.3 23.65-8.668 2.087.448 4.24.994 4.784 1.213.87.35.922.216.433-1.093-2.504-6.688-9.03-11.72-15.199-11.72-3.67 0-4.07.45-2.145 2.406 1.297 1.315 1.658 2.145 1.529 3.499-.137 1.423-.453 1.807-1.601 1.943-3.033.358-5.814-3.96-3.841-5.963Zm4.77 4.707c.395-1.045-1.16-4.079-2.324-4.532l-.182-.071c-.47-.185-.694-.273-.889-.227-.18.042-.333.199-.627.5l-.125.127c-1.085 1.103-.779 2.563.804 3.826 1.719 1.374 2.916 1.508 3.343.377Zm-19.873 8.764c3.105 0 3.3-4.437.276-6.309-.96-.594-2.437-1.08-3.284-1.082-1.381-.002-1.54.2-1.54 1.945 0 2.663 2.324 5.446 4.548 5.446Zm31.296 6.859c0-1.443-1.789-4.043-3.342-4.858-1.876-.985-1.94-.998-2.445-.484-.786.797-.314 2.309 1.166 3.74 1.722 1.662 4.621 2.667 4.621 1.602Zm-13.87 11.91c.502 0 .94-3.194.613-4.466-.182-.704-.762-1.222-1.37-1.222-.82 0-1.051.41-1.037 1.848.016 1.655 1.037 3.84 1.794 3.84Zm-7.121 3.3c-1.376-2.084-3.368-4.459-4.425-5.278-5.004-3.876-10.021-.963-6.838 3.97 2.3 3.566 9.455 6.757 12.508 5.579 1.24-.48 1.225-.534-1.245-4.272Zm-12.708 63.241c1.062 0 3.412-3.03 4.22-5.44.466-1.387.673-2.516.461-2.507-.703.028-3.89 3.086-4.868 4.672-.933 1.513-.832 3.275.188 3.275Z" fill="#fff" stroke="#fff" stroke-width="1.114"/></svg>