<svg width="114" height="114" fill="none" xmlns="http://www.w3.org/2000/svg"><g clip-path="url(#a)"><path fill-rule="evenodd" clip-rule="evenodd" d="M47.733 7.255c-4.478.79-8.806 3.057-11.644 6.099-1.474 1.579-2.175 2.661-2.933 4.525l-.502 1.233-1.265.43c-4.789 1.625-9.214 8.042-9.934 14.406-.168 1.487 0 4.438.279 4.89.046.075-.282.39-.728.698-2.043 1.413-4.397 5.365-5.34 8.966-.702 2.684-.88 7.052-.384 9.48.407 1.998 1.273 4.445 2.024 5.724l.55.936-.92 1.835c-1.31 2.615-1.798 4.552-1.903 7.556-.153 4.354.883 7.918 3.419 11.76 1.212 1.836 3.613 4.168 5.372 5.218 1.453.868 1.476.894 1.71 1.955.353 1.604 1.293 3.742 2.367 5.39 4.071 6.242 12.246 9.652 20.085 8.38 2.181-.354 4.723-1.173 6.637-2.138l1.375-.692 1.374.692c1.914.965 4.456 1.784 6.637 2.138 7.84 1.272 16.014-2.138 20.085-8.38 1.074-1.648 2.014-3.786 2.367-5.39.234-1.06.257-1.087 1.71-1.955 1.76-1.05 4.16-3.382 5.372-5.218 2.536-3.842 3.572-7.406 3.42-11.76-.106-3.004-.594-4.94-1.905-7.556l-.92-1.835.551-.936c.752-1.279 1.617-3.726 2.024-5.725.495-2.427.318-6.795-.384-9.479-.943-3.6-3.297-7.553-5.34-8.966-.446-.308-.774-.623-.727-.698.046-.075.17-.831.275-1.68.478-3.853-.774-8.22-3.498-12.202-1.92-2.804-4.045-4.591-6.433-5.41l-1.265-.434-.502-1.233c-.757-1.864-1.46-2.946-2.933-4.525C71.32 8.438 63.22 5.886 57.218 7.466c-1.134.299-1.307.298-2.44-.003-1.661-.442-5.138-.545-7.045-.208Zm6.556 2.251.732.22v6.44c0 3.542-.04 6.44-.09 6.44-.05 0-.512-.267-1.026-.594-1.288-.82-2.718-1.196-4.544-1.196-1.859 0-3.272.273-5.401 1.042-1.818.657-2.322 1.083-2.14 1.81.23.922.767.993 2.531.337 2.268-.845 3.165-1.048 4.714-1.07 2.385-.035 4.042.707 5.316 2.38l.64.84v17.281c0 9.505-.046 17.282-.104 17.282-.056 0-.378-.314-.715-.697-.831-.949-2.557-2.254-4.102-3.104-3.17-1.744-8.154-2.995-9.032-2.266-.32.266-.394.928-.148 1.315.188.297 1.105.647 1.692.647.934 0 3.984 1.016 5.95 1.98 1.701.837 2.294 1.26 3.634 2.588.88.874 1.875 2.073 2.211 2.663l.61 1.076.003 8.827.001 8.827-.927.677c-2.02 1.473-4.057 2.202-6.885 2.463-1.918.177-2.342.39-2.342 1.177 0 .79.343.993 1.682.993 2.38 0 5.674-.91 7.54-2.083.402-.252.775-.457.83-.457.056 0 .102 3.73.102 8.291v8.292l-1.084.588c-1.405.761-3.35 1.496-5.067 1.912-1.972.479-6.336.48-8.374.002-3.318-.779-6.244-2.346-8.583-4.598-2.239-2.155-3.493-4.275-4.226-7.142l-.386-1.512.507-1.011c1.61-3.21 4.014-4.43 6.532-3.315 1.07.474 1.764 1.333 3.024 3.743 2.267 4.336 5.085 6.043 10.573 6.403 1.942.127 1.965.124 2.283-.361.24-.367.274-.614.135-.979-.233-.614-.557-.737-1.94-.737-.609 0-1.722-.123-2.474-.273-3.715-.74-4.856-1.674-7.137-5.846-1.247-2.282-2.373-3.42-3.975-4.02-1.258-.471-2.92-.57-4.131-.242-1.587.427-3.507 2.206-4.502 4.172l-.48.949-.806-.448c-1.223-.681-3.692-3.099-4.687-4.59-2.127-3.188-2.902-5.551-3.033-9.246-.079-2.208-.03-2.91.304-4.3.473-1.969.94-3.162 1.073-2.736 1.68 5.398 4.281 8.606 8.678 10.697 1.997.95 2.89 1.094 3.299.534.63-.863.237-1.336-1.83-2.197-3.69-1.537-6.332-4.423-7.676-8.383-.592-1.743-.654-2.14-.665-4.267-.011-2.07.042-2.467.454-3.379a5.194 5.194 0 0 1 3.303-2.849c1.13-.317 3.481-.393 4.627-.148.555.118.592.187.7 1.296.25 2.6 1.44 4.908 3.678 7.147 1.653 1.654 3.329 2.855 5.208 3.736 1.197.56 1.283.574 1.743.271.476-.311.63-.959.336-1.406-.08-.12-.54-.417-1.022-.66-4.225-2.13-7.196-5.45-7.801-8.718-.65-3.511 1.4-6.768 6.14-9.75 4.694-2.955 8.255-6.023 9.826-8.468 2.251-3.5 1.979-6.551-.817-9.17-2.73-2.555-5.471-2.972-9.43-1.433-1.846.717-4.08 2.043-4.484 2.661-.289.44-.288.518.006.967.445.68 1.029.62 2.488-.255 2.596-1.558 5.2-2.356 6.868-2.105 1.618.242 3.615 1.774 4.354 3.337.57 1.207.582 1.922.056 3.327-.99 2.65-3.903 5.374-9.986 9.342-3.575 2.331-5.108 3.837-6.243 6.13l-.806 1.629-1.787-.126c-4.305-.303-7.64 1.273-8.838 4.177-.189.456-.405.83-.482.83-.194.002-.88-2.294-1.151-3.848-.338-1.94-.116-6.434.407-8.268.723-2.536 2.134-5.23 3.51-6.702.674-.721 1.316-1.311 1.427-1.311.11 0 .63.401 1.154.892.525.49 1.544 1.17 2.266 1.51 1.14.535 1.57.627 3.268.691 1.718.066 2.145.012 3.515-.447 2.615-.874 4.587-2.124 4.587-2.91 0-.482-.54-1.105-.958-1.104-.171 0-.795.29-1.386.645-3.95 2.37-7.29 2.337-10.056-.1-1.057-.93-1.21-1.263-1.48-3.208-.86-6.182 4.57-15.054 9.577-15.647.54-.064 1.055-.214 1.146-.333.091-.12.372-.873.624-1.674 1.443-4.582 6.382-8.458 12.492-9.805 1.83-.403 5.508-.393 6.883.018Zm10.203-.015c4.717.98 8.973 3.622 11.2 6.954.53.793 1.116 1.902 1.303 2.464.333 1.005.331 1.043-.126 2.408-.617 1.838-.66 5.094-.09 6.832.377 1.15 1.453 2.97 2.243 3.79.555.576 1.292.567 1.678-.023.36-.55.231-.938-.768-2.325-1.457-2.022-1.936-4.92-1.185-7.181.392-1.182.65-1.226 2.233-.38 3.495 1.863 6.779 7.132 7.435 11.927.223 1.634 0 4.3-.402 4.783-.627.757-3.94 1.644-6.142 1.646-3.626.002-6.297-1.643-7.836-4.83-.404-.834-.862-1.67-1.02-1.858-.59-.708-1.59-.19-1.59.822 0 .78 1.401 3.484 2.386 4.604 3.308 3.762 9.051 4.417 15.131 1.727.344-.152 2.29 1.763 3.192 3.143 3.021 4.616 3.638 12.145 1.406 17.173l-.503 1.134-.635-1.19c-.833-1.56-2.148-3.082-3.621-4.19-1.27-.955-1.722-1.075-2.21-.587-.59.59-.337 1.055 1.622 2.978 2.462 2.418 3.197 3.8 3.309 6.224.153 3.31-1.285 6.013-5.046 9.485-1.805 1.666-2.021 2.08-1.43 2.733.551.61 1.1.419 2.551-.89 3.268-2.946 4.644-4.893 5.818-8.231.118-.336.187-.278.487.413 1.17 2.688 1.303 7.495.293 10.63-.639 1.981-1.211 3.16-2.403 4.946-.996 1.492-3.464 3.909-4.687 4.59l-.805.448-.519-1.024c-.701-1.386-2.457-3.184-3.706-3.795-2.078-1.018-5.11-.49-6.92 1.204-.541.507-1.311 1.599-1.944 2.756-2.28 4.172-3.422 5.107-7.137 5.846-.752.15-1.865.273-2.474.273-1.383 0-1.707.123-1.94.737-.138.365-.105.612.136.979.317.485.34.488 2.282.361 5.488-.36 8.306-2.067 10.573-6.403 1.26-2.41 1.954-3.269 3.025-3.743 2.517-1.115 4.922.106 6.53 3.315l.508 1.011-.386 1.512c-.733 2.867-1.987 4.987-4.226 7.142-2.34 2.252-5.265 3.819-8.583 4.598-2.038.478-6.402.477-8.374-.002-1.716-.416-3.662-1.151-5.066-1.912l-1.085-.588v-8.292c0-4.56.046-8.291.101-8.291.056 0 .43.205.83.457 1.867 1.173 5.162 2.083 7.541 2.083 1.339 0 1.682-.203 1.682-.993s-.424-1-2.393-1.182c-2.736-.253-4.946-1.055-6.834-2.481l-.927-.701v-17.56l.574-1.001c2.29-3.991 7.38-6.8 11.82-6.523 2.653.166 4.325 1.187 5.304 3.239.73 1.53.875 3.884.318 5.145-.503 1.139-1.392 2.135-2.595 2.907-.794.51-.97.726-.97 1.185 0 .38.153.663.475.874.44.288.533.286 1.198-.03 1.151-.547 2.888-2.294 3.615-3.637.643-1.187.666-1.304.667-3.379 0-2-.045-2.255-.643-3.641-1.67-3.872-5.6-5.568-10.545-4.551-2.92.6-6.121 2.3-8.038 4.269-.479.491-.94.894-1.025.894-.086 0-.155-7.777-.155-17.282V26.154l.64-.84c1.273-1.67 2.926-2.412 5.316-2.385 1.531.017 2.405.216 4.714 1.076 1.764.656 2.3.585 2.532-.337.181-.727-.323-1.153-2.14-1.81-2.13-.77-3.543-1.042-5.401-1.042-1.827 0-3.256.376-4.545 1.196-.514.327-.975.594-1.025.594-.05 0-.091-2.899-.091-6.442V9.722l.732-.19c1.947-.505 4.479-.52 6.786-.041Zm-1.685 22.912c-.383.383-.405.546-.28 2.075.278 3.433 1.642 7.289 3.5 9.89 2.283 3.197 5.993 5.597 10.279 6.648 2.14.525 3.88.703 6.883.707 2.623.004 2.915-.03 3.27-.387.488-.488.496-.872.027-1.342-.323-.323-.801-.378-4.15-.473-3.788-.107-5.1-.314-7.509-1.18-5.91-2.124-9.647-7.327-10.172-14.163-.102-1.336-.197-1.674-.53-1.907-.548-.385-.829-.357-1.318.132Zm-18.483 33.25c-.205.248-.303.647-.261 1.06.013.125.46.697.995 1.27 1.117 1.197 2.134 3.07 2.287 4.214.146 1.09-.239 2.11-1.186 3.143-2.108 2.299-5.254 2.39-8.43.245-1.08-.73-1.726-.768-2.147-.125-.511.782.22 1.62 2.361 2.705 3.573 1.81 6.832 1.445 9.459-1.063 1.416-1.352 2.053-2.782 2.044-4.59-.005-1.24-.098-1.585-.815-3.034-1.399-2.826-3.555-4.741-4.307-3.825Zm21.004.957c-.722.772-1.458 1.846-1.964 2.868-.717 1.449-.81 1.794-.816 3.033-.008 1.81.629 3.239 2.046 4.591 2.626 2.508 5.885 2.874 9.458 1.063 2.142-1.086 2.873-1.923 2.36-2.705-.409-.625-1.154-.616-1.995.026-1.901 1.451-4.672 2.03-6.454 1.35-1.213-.464-2.684-1.86-3.095-2.936-.612-1.606.152-3.866 1.963-5.8.475-.51.951-1.086 1.056-1.283.296-.552-.161-1.297-.842-1.376-.474-.055-.742.128-1.717 1.17Z" fill="#fff"/></g><defs><clipPath id="a"><path fill="#fff" transform="translate(15 7)" d="M0 0h83.505v100H0z"/></clipPath></defs></svg>