<svg width="114" height="114" fill="none" xmlns="http://www.w3.org/2000/svg"><g clip-path="url(#a)" stroke="#fff" stroke-linecap="round" stroke-linejoin="round"><path d="M95.352 57.484c9.39 14.71 18.9 29.244 38.025 29.489 15.65.2 25.108-9.35 33.38-20.751M101.053 49.274c8.197-11.212 17.614-20.521 33.068-20.323 19.154.245 28.664 14.78 38.025 29.489" stroke-width="2.049"/><path d="m104.133 46.76-.285 22.243M114.415 35.242l-.577 45.003" stroke-width="1.025"/><path d="M18.562 56.501c9.39 14.71 18.9 29.244 38.025 29.488 15.65.2 25.108-9.349 33.38-20.75M24.26 48.29c8.198-11.212 17.616-20.52 33.069-20.322 19.154.245 28.664 14.779 38.024 29.488" stroke-width="2.049"/><path d="m27.34 45.778-.284 22.243M37.624 34.26l-.577 45.003M50.767 29.622l-.703 54.88M63.847 29.79l-.703 54.88M76.847 36.22 76.3 78.825M86.837 47.645l-.26 20.306" stroke-width="1.025"/><path d="M-58.233 55.518c9.39 14.71 18.9 29.242 38.025 29.488 15.65.2 25.108-9.349 33.38-20.75M-52.532 47.306c8.197-11.212 17.615-20.52 33.068-20.322C-.31 27.228 9.2 41.763 18.56 56.472" stroke-width="2.049"/><path d="M.054 35.234-.492 77.84M10.044 46.661l-.26 20.305" stroke-width="1.025"/></g><defs><clipPath id="a"><path fill="#fff" transform="rotate(90 57 57)" d="M0 0h114v114H0z"/></clipPath></defs></svg>